<?xml version="1.0" encoding="utf-8"?>
<!-- Generator: Adobe Illustrator 13.0.0, SVG Export Plug-In . SVG Version: 6.00 Build 14948)  -->
<svg version="1.2" baseProfile="tiny" xmlns="http://www.w3.org/2000/svg" xmlns:xlink="http://www.w3.org/1999/xlink" x="0px"
	 y="0px" width="208px" height="100px" viewBox="-11 -30.5 208 100" xml:space="preserve">
<g id="Слой_1">
	<polygon points="175.473,-11.466 175.473,-11.419 175.427,-11.419 	"/>
	<path d="M173.223-12.096v-0.092c0.037,0,0.093,0,0.129,0.046L173.223-12.096L173.223-12.096z"/>
	<g>
		<path fill="#020203" d="M196.156,9.625c-0.093-0.588-0.13-1.172-0.186-1.76l-0.13-1.486l-0.185-4.191
			c-0.13-2.478-0.445-4.909-0.945-7.345l-0.583-1.848c0-0.042,0-0.042,0-0.088l-0.084-0.408l-0.139-0.403
			c-0.676-1.801-2.251-3.02-4.149-3.2c-0.584-0.181-1.121-0.269-1.714-0.269c-0.49,0-0.991,0.088-1.667,0.222l-0.667-0.046
			c-1.037,0-2.038,0.361-2.89,0.95c-0.278,0.088-0.5,0.222-0.723,0.361l-0.046-0.723c-0.047-2.255-1.437-4.956-5.178-5.631
			c-0.853-0.181-1.714-0.32-2.575-0.32h-0.315l-0.176,0.046c-0.231,0-0.546,0-0.991,0l-0.537,0.046
			c-0.907,0.134-1.723,0.408-2.436,0.903c-0.231,0.134-0.408,0.315-0.584,0.449c-0.593-0.227-1.223-0.407-1.853-0.407
			c-0.723,0-1.398,0.139-1.89,0.315c-1.037,0.227-2.028,0.542-2.982,0.903c-0.713-1.26-2.111-2.39-4.224-2.524
			c-0.5-0.088-1.037-0.134-1.584-0.181h-0.269c-2.204,0-3.927,0.588-5.187,1.713c-0.537,0.269-0.981,0.676-1.39,1.172
			c-0.37,0.449-0.63,0.903-0.814,1.44c-0.315-0.181-0.63-0.356-0.945-0.496c-1.13-0.537-2.297-0.811-3.52-0.811l-0.667,0.046
			c-0.5,0.046-0.954,0.088-1.408,0.227c-1.936,0.496-3.603,1.486-4.945,2.927c-0.464,0.449-0.815,0.945-1.131,1.487
			c-0.814-1.038-2.037-1.714-3.334-1.848c-0.593-0.181-1.13-0.269-1.714-0.269c-0.5,0-0.991,0.088-1.676,0.222l-0.667-0.042
			c-1.038,0-2.028,0.315-2.891,0.945c-0.269,0.088-0.49,0.227-0.722,0.361l-0.037-0.723c-0.047-2.25-1.445-4.955-5.188-5.631
			c-0.852-0.181-1.704-0.315-2.565-0.315h-0.314l-0.177,0.042c-0.231,0-0.546,0-1,0l-0.537,0.046
			c-0.908,0.134-1.714,0.408-2.39,0.857c-0.186-0.088-0.361-0.181-0.584-0.269c-2.528-1.084-5.178-1.626-7.938-1.626
			c-3.195,0-6.215,0.857-8.962,2.482c-1.94,1.125-3.649,2.566-5.136,4.279l-0.092,0.134c-0.764,0.95-1.125,2.028-1.125,3.2
			c0,0.764,0.181,1.487,0.496,2.163l0.134,0.361c0.496,1.218,1.218,2.251,2.163,3.154l0.134,0.134
			c0.273,0.315,0.542,0.588,0.857,0.811l0.314,0.273h0.135c0.139,0.088,0.272,0.134,0.407,0.222
			c0.088,2.343,0.227,5.006,0.361,7.979c0,0.583,0,1.213,0.046,1.755l0.088,1.76c0,0.269,0.047,0.537,0.093,0.811
			c-0.046,0.134-0.093,0.222-0.093,0.361v0.042c-0.088,0.361-0.134,0.676-0.134,1.038v0.092c0,1.575,0.764,3.02,2.07,3.964
			c0.139,0.088,0.272,0.181,0.407,0.315c-0.047,0.361-0.135,0.723-0.181,1.172c-0.088,0.722-0.269,1.848-0.361,2.343l-0.403,0.631
			l-0.361,2.658c-0.407,2.885-0.541,4.01-0.588,4.552c-0.222,1.621-0.402,3.247-0.583,4.868l-0.047,0.676
			c-0.181,2.028-0.269,3.515-0.269,4.46c0,0.903,0,1.486,0.042,1.802c0.093,2.074,1.311,3.788,3.158,4.464
			c0.223,0.088,0.403,0.135,0.584,0.223c0.769,0.407,1.584,0.676,2.473,0.676h0.63l0.547-0.134c0.046,0,0.093,0,0.139,0
			c0.223-0.047,0.491-0.047,0.76,0l0.769,0.093l0.491,0.041c0.139,0,0.277,0,0.407,0c0.056,0.273,0.139,0.542,0.231,0.815
			c0.454,1.843,1.936,3.195,3.732,3.603c0.815,0.408,1.538,0.496,2.075,0.496c0.63,0,1.26-0.135,1.853-0.361l0.537-0.181
			l0.454-0.314c0.176,0,0.314,0.046,0.49,0.046c1.399,0,2.751-0.63,3.649-1.714l0.371-0.449c0.13-0.181,0.314-0.407,0.398-0.588
			c1.083,0.273,2.028,0.273,2.528,0.273c0.314,0,0.583,0,0.898-0.047c0.547-0.046,1.037-0.134,1.528-0.361h2.121l0.269-0.541
			c0.314,0.495,0.769,0.949,1.26,1.352c0.944,1.084,2.353,1.714,3.927,1.714c1.075,0,3.687,0,5.725-1.398
			c0.491,0.046,0.981,0.093,1.445,0.093c0.537,0,1.12-0.047,1.704-0.135c0.5-0.093,0.991-0.227,1.444-0.407l3.288-0.047v-0.944
			c0.408,0.181,0.898,0.314,1.353,0.407l0.361,0.042c0.407,0.046,0.584,0.046,0.537,0.046l0.5,0.135l1.131,0.093h0.314l0,0
			c0.806,0.944,1.89,1.574,3.103,1.802h0.093c0.769,0.134,1.714,0.181,2.788,0.181c4.919,0,6.493-2.659,7.039-4.326
			c0.408,0.088,0.807,0.181,1.214,0.269c1.26,0.269,2.565,0.361,3.881,0.135c0.26-0.042,0.806-0.135,1.39-0.361
			c1.76,2.255,3.964,3.158,5.455,3.562l0.176,0.046c0.677,0.135,1.399,0.227,2.121,0.227c1.575,0,3.733-0.453,5.947-2.209
			c1.213,1.033,2.843,1.487,4.325,1.26h0.186c0.176,0.047,0.352,0.047,0.537,0.093c1.353,0.449,2.834,0.315,4.057-0.319
			c1.982-0.537,3.381-2.204,3.604-4.325c0.046-0.269,0.092-0.538,0.176-0.765l0.139-0.407l0.047-0.449l0.092-1.398l-0.046-0.315
			c-0.093-0.583-0.139-1.172-0.176-1.755l-0.14-1.487l-0.176-4.19c-0.139-2.479-0.463-4.96-0.954-7.346L192.507,24
			c0-0.047,0-0.047,0-0.093l-0.093-0.403l-0.13-0.406c-0.686-1.803-2.26-3.02-4.149-3.201c-0.583-0.181-1.13-0.269-1.714-0.269
			c-0.49,0-0.99,0.088-1.667,0.227l-0.676-0.046c-1.038,0-2.028,0.315-2.881,0.945c-0.269,0.092-0.491,0.227-0.723,0.361
			l-0.046-0.723c0-0.676-0.186-1.394-0.444-2.07c1.074-0.315,2.297-0.903,3.51-1.848c1.214,1.037,2.844,1.486,4.326,1.259h0.185
			c0.176,0.046,0.353,0.046,0.537,0.093c1.353,0.449,2.835,0.315,4.058-0.315c1.981-0.542,3.371-2.209,3.603-4.326
			c0.047-0.273,0.084-0.542,0.176-0.769l0.14-0.403l0.046-0.454l0.093-1.394L196.156,9.625z M116.036,2.053
			c0-0.315,0-0.542,0.037-0.764c0-1.306,0.056-3.964,0.186-7.979c0.046-1.348,0.13-2.7,0.314-4.011
			c0.223-1.574,0.454-2.431,0.537-2.519c0.14-0.093,0.315-0.139,0.501-0.181c0.814,0,1.352,0,1.537-0.046
			c0.574,0,1.121,0.088,1.704,0.227c1.084,0.181,1.631,0.63,1.631,1.394l0.036,0.769v6.669l-0.036,2.297l0.036,2.297v2.751
			c0,0.449,0,0.898,0.047,1.352c0.046,0.449,0.046,0.718,0.046,0.764s0.047,0.093,0.13,0.093l0.139-0.046
			c0.231-0.361,0.898-1.667,2.075-3.922c1.436-2.747,2.751-5.498,4.011-8.244c0.093-0.227,0.314-0.361,0.593-0.454
			c0.259-0.088,0.537-0.222,0.76-0.449c0.092-0.088,0.185-0.134,0.269-0.134l0.176,0.046c0.186,0.042,0.37,0.088,0.546,0.088
			c0.232,0,0.454-0.046,0.677-0.134c0.5-0.134,0.814-0.227,0.991-0.227c0.231,0,0.453,0.093,0.722,0.227
			c0.084,0.046,0.177,0.046,0.27,0.046h0.277c0.223,0,0.353,0.088,0.444,0.315c0.093,0.449,0.186,0.764,0.269,0.945l0.361,1.171
			c0.445,2.163,0.76,4.372,0.853,6.623l0.231,4.284l0.139,1.352c0.037,0.764,0.084,1.487,0.223,2.251v0.181l-0.046,0.315
			c-0.177,0.588-0.315,1.172-0.361,1.76c-0.047,0.222-0.186,0.403-0.408,0.449l-0.185,0.046c-0.177,0.046-0.353,0.088-0.491,0.222
			c-0.139,0.093-0.315,0.181-0.491,0.181c-0.093,0-0.222-0.042-0.37-0.088c-0.444-0.093-0.89-0.181-1.297-0.273l-0.63-0.042
			l-0.278-0.046c-0.092,0-0.222,0-0.314,0.046c-0.093,0.042-0.176,0.042-0.314,0.042c-0.177,0-0.408-0.088-0.584-0.269
			s-0.315-0.403-0.361-0.722c-0.046-0.134-0.093-0.223-0.13-0.315c-0.093-0.088-0.093-0.181-0.093-0.223
			c0-0.092,0-0.227,0.037-0.273c0.093-0.315,0.14-0.676,0.14-1.038c0-0.991-0.084-1.982-0.315-2.973
			c0-0.088-0.046-0.134-0.139-0.134c-0.083,0-0.176,0.046-0.223,0.134c-0.093,0.093-0.185,0.227-0.269,0.361
			c-0.806,1.218-1.713,2.39-2.658,3.515c-1.537,1.936-3.112,2.885-4.779,2.885c-0.407,0-0.76-0.046-1.167-0.134
			c-2.482-0.635-4.011-2.524-4.594-5.724c-0.056-0.273-0.093-0.496-0.093-0.769c0-0.269-0.047-0.496-0.093-0.718
			c-0.093-0.542-0.13-1.083-0.13-1.667l-0.056-1.264C115.99,2.28,116.036,2.099,116.036,2.053z M99.716-5.876l-0.718,0.269
			c-0.088,0.088-0.223,0.181-0.314,0.181c-0.089,0-0.181-0.046-0.223-0.134C98.368-5.653,98.28-5.695,98.1-5.695l-0.314,0.042
			c-0.315,0-0.542-0.134-0.723-0.403c-0.093-0.092-0.181-0.227-0.269-0.273h-0.047c-0.449-0.449-0.811-0.945-1.083-1.575
			c0-0.181-0.042-0.315-0.181-0.496c-0.088-0.139-0.181-0.273-0.181-0.361c0-0.134,0.046-0.269,0.181-0.407
			c1.13-1.306,2.436-2.432,3.974-3.288c2.065-1.26,4.315-1.848,6.752-1.848c2.158,0,4.232,0.408,6.215,1.265
			c0.769,0.315,1.445,0.764,2.038,1.306c1.037,0.945,1.528,2.205,1.528,3.696c0,1.033-0.176,1.982-0.491,2.839
			c-0.593,1.487-1.408,2.792-2.482,3.918c-0.093,0.093-0.222,0.227-0.277,0.361c0,0.088,0,0.181,0.056,0.181
			c0.083,0.088,0.176,0.222,0.314,0.269c1.528,1.038,2.297,2.57,2.297,4.552c0,0.315-0.056,0.588-0.093,0.903
			c-0.314,1.982-1.13,3.737-2.482,5.224c-0.666,0.769-1.481,1.352-2.334,1.848l-0.147,0.093c-0.445,0.269-0.853,0.403-1.204,0.403
			h-0.186c-0.093,0-0.223,0.046-0.361,0.093c-0.046,0.046-0.093,0.046-0.139,0.046c-0.667,0.222-1.353,0.356-1.982,0.449
			c-0.667,0.088-1.353,0.134-2.075,0.134l-0.63,0.046l-0.269-0.046c-0.139,0-0.269,0.046-0.361,0.134
			c-0.092,0.092-0.222,0.134-0.269,0.134c-0.176,0-0.314-0.042-0.49-0.176c-0.14-0.139-0.315-0.181-0.547-0.227
			c-0.398-0.093-0.769-0.273-1.084-0.542c-0.222-0.134-0.314-0.269-0.314-0.408c0-0.042,0-0.042,0-0.088s0-0.046,0.046-0.088
			c0.047-0.046,0.047-0.093,0.047-0.093l0.093-0.227l0.037-1.171c0-0.176,0-0.315-0.037-0.449c-0.047-0.134-0.047-0.269-0.047-0.403
			l-0.093-1.806c-0.046-0.537-0.046-1.125-0.046-1.708c-0.223-3.923-0.352-7.257-0.444-10.05v-1.714
			C99.947-5.788,99.854-5.876,99.716-5.876z M118.148,20.619c-0.13,1.58-0.315,3.288-0.584,5.048
			c-0.491,2.747-0.769,4.688-0.806,5.813c-0.056,1.265-0.139,2.751-0.278,4.418v0.181c0,0.042-0.036,0.088-0.129,0.088l-0.14-0.046
			c-0.083,0-0.176,0.093-0.176,0.273c0,1.037-0.046,1.755-0.093,2.25l-0.046,0.77c0,0.583,0.093,1.125,0.269,1.709
			c0.046,0.18,0.093,0.319,0.093,0.453c0,0.269-0.093,0.537-0.223,0.765c-0.093,0.134-0.139,0.269-0.139,0.407v0.135
			c0,0.402-0.139,0.722-0.361,1.037c-0.093,0.088-0.13,0.181-0.223,0.223c-0.046,0.092-0.092,0.134-0.185,0.227
			c-0.037,0.088-0.13,0.088-0.223,0.088c-0.046,0-0.093-0.042-0.186-0.088c-0.083-0.047-0.222-0.093-0.352-0.093
			c-0.139,0-0.278,0.046-0.361,0.093c-0.093,0.046-0.176,0.088-0.176,0.088c-0.723,0.093-1.353,0.319-1.945,0.769
			c-0.093,0.047-0.13,0.047-0.223,0.088c-0.046,0.047-0.092,0.047-0.185,0.047c-0.037,0-0.13-0.088-0.223-0.228
			c-0.093-0.134-0.223-0.222-0.407-0.222l-0.353,0.041c-0.277,0-0.407-0.134-0.463-0.356c-0.574-2.074-0.852-3.473-0.852-4.149
			l1.259-14.959c0-0.227-0.037-0.361-0.092-0.449c-0.084-0.092-0.26-0.092-0.63-0.092h-1.214c-0.176,0.046-0.314,0.134-0.314,0.314
			l-0.14,0.407c0,0.088-0.037,0.181-0.129,0.181c-0.186,0.042-1.131,8.878-1.131,9.059v0.181c-0.036,0.63-0.092,1.26-0.222,1.802
			c-0.047,0.269-0.093,0.584-0.093,0.856c0,0.269,0.046,0.537,0.093,0.811l0.046,0.223c0,0.181-0.046,0.319-0.176,0.407
			c-0.093,0.088-0.186,0.181-0.231,0.269c-0.047,0.093-0.047,0.14-0.047,0.14c-0.269,0.537-0.583,0.81-1.074,0.81l-0.37-0.046
			c-0.398-0.093-0.806-0.134-1.26-0.134c-0.315,0-0.584,0-0.853,0.041c-0.277,0.047-0.537,0.093-0.769,0.139h-0.083
			c-0.186,0-0.315-0.092-0.454-0.227c-0.139-0.134-0.314-0.227-0.547-0.227c-0.129-0.042-0.314-0.088-0.49-0.135
			c-0.176-0.088-0.269-0.222-0.269-0.495c0-0.269,0-0.811,0-1.575c0-0.814,0.093-2.209,0.269-4.103
			c0.046-0.181,0.046-0.403,0.046-0.63c0.176-1.621,0.353-3.247,0.584-4.821c0.046-0.676,0.269-2.121,0.583-4.372l0.278-1.76
			c0.176-0.315,0.314-0.63,0.398-0.991c0.139-0.449,0.814-5.136,0.861-5.182c0.093-0.042,0.129-0.042,0.176-0.042h0.269
			c0.139,0,0.278-0.046,0.37-0.093c0.26-0.088,0.537-0.181,0.76-0.181c0.186,0,0.361,0,0.537,0.046
			c0.186,0.046,0.408,0.088,0.593,0.134c0.176,0.046,0.353,0.093,0.491,0.093c0.231,0,0.454-0.046,0.676-0.181l0.223-0.046
			c0.093,0,0.139,0.046,0.223,0.088c0.324,0.273,4.371,2.255,4.687,1.218c0.148-0.542,0.231-0.811,0.277-0.857
			c0.047-0.042,0.13-0.042,0.223-0.042l0.314,0.042c0.093,0,0.14-0.042,0.223-0.134c0.278-0.227,0.547-0.315,0.815-0.315
			c0.277,0,0.407,0,0.5,0.046c0.093,0.042,0.223,0.042,0.352,0.042l0.547-0.042c0.176,0.088,0.314,0.134,0.454,0.134
			c0.176,0,0.407-0.093,0.583-0.227l0.084-0.042c0.056,0,0.056,0,0.092,0c0.047,0,0.047,0.042,0.093,0.088
			c0.278,0.361,0.593,0.583,0.991,0.722c0.269,0.088,0.407,0.269,0.407,0.538v1.491c0,0.088,0.047,0.134,0.084,0.134h0.056
			c0.176,0,0.259,0.042,0.259,0.181L118.148,20.619z M135.506,42.928c-0.314,0.765-1.537,1.125-3.649,1.125
			c-0.314,0-0.5-0.092-0.63-0.269c-0.093-0.181-0.277-0.319-0.5-0.5c-0.223-0.134-0.361-0.356-0.361-0.63
			c-0.046-0.944-0.176-1.89-0.407-2.792c-0.454-1.895-0.723-2.932-0.77-3.2c-0.092-0.228-0.269-0.408-0.49-0.408l-0.361,0.047
			l-1.084,0.046c-0.713,0-1.436-0.046-2.158-0.181h-0.185c-0.223,0-0.361,0.135-0.361,0.408c-0.177,0.944-0.361,1.936-0.491,2.973
			c-0.139,1.037-0.223,1.667-0.361,1.895l-0.046,0.088c-0.047,0-0.13-0.088-0.186-0.228c-0.083-0.134-0.176-0.222-0.26-0.222
			c-0.093,0.042-0.147,0.088-0.185,0.134c-0.047,0.047-0.047,0.135-0.047,0.181c0,0.088-0.046,0.135-0.046,0.181
			c-0.093,0.181-0.269,0.269-0.444,0.269c-0.186,0-0.408,0-0.593,0c-1.168,0-1.937-0.227-2.298-0.63l-0.537-0.407
			c-0.407-0.134-0.593-0.361-0.593-0.676l0.056-0.718l0.037-1.172c0.046-0.228,0.093-0.454,0.093-0.677
			c0.046-1.171,0.13-2.343,0.269-3.515l0.139-1.626c0.537-5.27,1.26-9.146,2.251-11.624c0.176-0.588,0.547-1.079,0.991-1.486
			c0.314-0.269,0.5-0.496,0.63-0.723c0.944-1.213,2.204-1.802,3.695-1.802h1.121c1.407,0,2.528,0.945,3.482,2.839
			c0.806,1.487,1.39,3.065,1.844,4.687c0.898,3.02,1.528,6.039,1.936,9.104l0.093,0.537c0.222,1.667,0.444,3.335,0.63,4.96
			c0,0.496,0,0.898,0.037,1.26c0.055,0.315,0.092,0.676,0.147,0.991C135.913,41.891,135.766,42.433,135.506,42.928z M151.9,40.131
			c0,0.272-0.037,0.588-0.093,0.856c-0.037,0.135-0.083,0.227-0.176,0.227l-0.361-0.046c-0.13,0-0.223,0.093-0.269,0.273
			c-0.047,0.176-0.083,0.269-0.223,0.356c-0.139,0.093-0.269,0.139-0.49,0.181c-0.186,0.046-0.408,0.046-0.593,0.046l-0.63-0.046
			c-0.361-0.088-0.853-0.181-1.482-0.269c-0.186-0.047-0.314-0.093-0.407-0.181c-0.093-0.047-0.186-0.088-0.231-0.135
			c-0.084-0.046-0.14-0.093-0.223-0.134c-0.269-0.047-0.407-0.228-0.407-0.496l-0.269-1.532c-0.047-0.315-0.093-0.542-0.223-0.589
			c-0.139-0.088-0.223-0.181-0.223-0.361l-0.463-2.746v-0.181c-0.223-1.486-0.537-2.973-0.981-4.418
			c-0.093-0.134-0.14-0.223-0.186-0.223c-0.223,0-0.314,0.089-0.314,0.315c-0.361,0.856-0.677,2.251-0.945,4.191l-0.361,2.611
			l-0.046,1.307c0,0.273-0.093,0.495-0.269,0.723c-0.176,0.227-0.269,0.495-0.269,0.856c0,0.449-0.223,0.944-0.723,1.394
			c0,0.047,0,0.047-0.047,0.047c-0.269,0.273-0.546,0.407-0.898,0.449c-0.36,0.046-0.722,0.093-1.037,0.093
			c-0.907,0-1.76-0.181-2.612-0.542l-0.314-0.223c-0.093,0-0.139-0.046-0.139-0.181l0.046-0.227c0-0.088,0-0.181-0.046-0.269
			c-0.047-0.093-0.047-0.181-0.047-0.319v-0.135c0.093-0.314,0.13-0.583,0.13-0.898v-1.94c0-0.181,0-0.314-0.037-0.449
			c-0.046-0.135-0.046-0.269-0.046-0.407l0.046-0.269c0.315-1.079,0.537-2.163,0.76-3.247l0.231-1.26
			c0.491-2.658,1.121-5.316,1.936-7.887c0.186-0.542,0.361-1.079,0.537-1.574c0.186-0.496,0.454-0.903,0.77-1.265
			c0.814-0.856,1.76-1.44,2.88-1.713c0.186-0.042,0.408-0.088,0.63-0.088l0.315-0.046c0.546,0,1.093,0.134,1.63,0.361
			c1.538,0.676,2.565,1.802,3.242,3.334c0.537,1.172,0.944,2.432,1.26,3.696l0.093,0.227c0.593,2.028,0.99,4.053,1.259,6.174
			c0.14,0.764,0.223,1.532,0.223,2.297c0.093,0.944,0.186,2.028,0.186,3.246C151.9,39.594,151.9,39.862,151.9,40.131z
			 M151.271,11.111c-0.352-0.088-0.853-0.181-1.482-0.269c-0.185-0.046-0.314-0.093-0.407-0.181
			c-0.093-0.046-0.186-0.092-0.223-0.139c-0.092-0.042-0.139-0.088-0.222-0.134c-0.278-0.042-0.408-0.223-0.408-0.496l-0.277-1.533
			c-0.037-0.315-0.093-0.537-0.223-0.583c-0.129-0.092-0.222-0.181-0.222-0.361l-0.454-2.746V4.489
			c-0.231-1.486-0.547-2.978-0.991-4.418c-0.093-0.134-0.13-0.227-0.186-0.227c-0.222,0-0.314,0.093-0.314,0.315
			c-0.353,0.857-0.667,2.255-0.945,4.191l-0.352,2.616l-0.056,1.306c0,0.269-0.083,0.496-0.259,0.723
			c-0.186,0.222-0.278,0.496-0.278,0.852c0,0.454-0.223,0.949-0.723,1.398c0,0.046,0,0.046-0.037,0.046
			c-0.277,0.269-0.546,0.403-0.907,0.449s-0.723,0.093-1.038,0.093c-0.898,0-1.76-0.181-2.611-0.542l-0.315-0.227
			c-0.093,0-0.129-0.042-0.129-0.181l0.036-0.222c0-0.092,0-0.181-0.036-0.273c-0.056-0.088-0.056-0.181-0.056-0.315V9.94
			c0.092-0.315,0.139-0.583,0.139-0.903V7.101c0-0.18,0-0.314-0.047-0.449c-0.036-0.139-0.036-0.273-0.036-0.407l0.036-0.269
			c0.315-1.084,0.538-2.163,0.77-3.247l0.231-1.26c0.491-2.658,1.12-5.321,1.927-7.887c0.185-0.542,0.37-1.084,0.546-1.58
			c0.176-0.495,0.454-0.898,0.769-1.259c0.807-0.857,1.761-1.44,2.881-1.714c0.176-0.046,0.398-0.088,0.63-0.088l0.315-0.046
			c0.546,0,1.083,0.134,1.62,0.361c1.538,0.676,2.575,1.802,3.242,3.334c0.547,1.172,0.945,2.431,1.27,3.696l0.083,0.222
			c0.593,2.028,1,4.057,1.269,6.173c0.14,0.769,0.223,1.533,0.223,2.302c0.093,0.945,0.176,2.028,0.176,3.242
			c0,0.273,0,0.542,0,0.857c0,0.273-0.037,0.588-0.083,0.857c-0.047,0.134-0.093,0.227-0.176,0.227l-0.371-0.046
			c-0.13,0-0.222,0.088-0.269,0.269c-0.046,0.181-0.083,0.273-0.223,0.361c-0.139,0.093-0.269,0.134-0.49,0.181
			c-0.186,0.046-0.408,0.046-0.593,0.046L151.271,11.111z M168.665,37.564c0.047,0.089,0.047,0.181,0.047,0.269
			c0,0.135,0,0.27-0.047,0.361c-0.037,0.088-0.037,0.181-0.093,0.181c-0.083,0.315-0.222,0.677-0.259,0.991
			c-0.093,0.315-0.278,0.496-0.547,0.584c-0.046,0.046-0.231,0.093-0.49,0.139c-0.278,0.042-0.594,0.042-0.862,0.042
			c-0.49,0-0.99-0.042-1.491-0.181c-1.667-0.315-3.278-0.811-4.862-1.487l-0.898-0.314c-0.093,0-0.186,0.093-0.223,0.227
			c0,0.269-0.056,0.542-0.093,0.765c-0.046,0.407-0.092,0.769-0.092,1.218c0,0.315,0.046,0.584,0.129,0.856
			c0.056,0.088,0.056,0.181,0.056,0.269c0,0.228-0.056,0.408-0.139,0.496c-0.093,0.093-0.139,0.273-0.139,0.495
			c-0.093,0.949-1.038,1.445-2.798,1.445c-0.898,0-1.574-0.047-2.158-0.135c-0.314-0.046-0.583-0.319-0.722-0.769l0.046-0.407
			c0.046-0.403,0.093-0.765,0.093-1.126l0.037-0.676c0.093-1.032,0.139-2.028,0.139-3.062l-0.046-2.121l-0.223-3.241
			c-0.046-0.589-0.223-1.084-0.583-1.579c-0.27-0.315-0.361-0.765-0.361-1.307c0-0.407,0.092-0.764,0.269-1.083
			c0.046,0,0.046,0,0.046-0.042c0.407-0.496,0.584-0.949,0.584-1.306v-7.211c0-0.273-0.047-0.496-0.084-0.676
			c-0.093-0.227-0.093-0.408-0.093-0.542c0-0.269,0.037-0.449,0.093-0.542c0.084-0.088,0.13-0.134,0.176-0.134
			c0.27-0.046,0.491-0.181,0.63-0.408c0.361-0.449,1.121-0.718,2.298-0.718c0.453,0.042,0.898,0.088,1.352,0.181
			c0.491,0,0.77,0.134,0.861,0.361l0.353,1.079c0.277,0.63,0.454,1.26,0.593,1.936l0.093,0.273c0.037,0.314,0.13,0.449,0.222,0.449
			c0.093,0,0.269-0.047,0.408-0.135c0.176-0.093,1.12-0.542,2.834-1.352c1.167-0.542,2.39-0.945,3.695-1.218
			c0.084-0.088,0.269-0.134,0.491-0.134c0.139,0,0.231,0.093,0.315,0.227c0.092,0.134,0.185,0.269,0.231,0.315
			c0.398,0.227,0.63,0.583,0.63,1.037v0.315c0,0.181,0.083,0.315,0.231,0.496c0.13,0.18,0.222,0.402,0.222,0.676
			c0,0.402-0.046,0.764-0.092,1.172c-0.047,0.269-0.093,0.495-0.093,0.764c0,0.093-0.093,0.227-0.315,0.361l-1.074,0.584
			c-2.621,1.352-4.918,3.112-6.854,5.321c0,0.041,0,0.041-0.046,0.041c-0.315,0.32-0.491,0.589-0.491,0.723
			c0,0.135,0.176,0.269,0.574,0.407l3.928,1.756l3.742,1.713c0.63,0.315,0.944,0.857,0.99,1.58c0,0.356-0.046,0.718-0.176,1.079
			l-0.093,0.314C168.572,37.431,168.628,37.473,168.665,37.564z M170.833,7.37c-0.047,0.092-0.047,0.18-0.093,0.18
			c-0.093,0.315-0.223,0.676-0.269,0.991c-0.093,0.315-0.269,0.496-0.547,0.588c-0.037,0.046-0.223,0.088-0.491,0.134
			s-0.583,0.046-0.861,0.046c-0.49,0-0.981-0.046-1.481-0.181c-1.667-0.315-3.288-0.811-4.872-1.487l-0.898-0.315
			c-0.084,0-0.176,0.088-0.223,0.222c0,0.273-0.046,0.542-0.093,0.769c-0.046,0.403-0.083,0.764-0.083,1.213
			c0,0.315,0.037,0.588,0.13,0.857c0.046,0.092,0.046,0.181,0.046,0.273c0,0.222-0.046,0.403-0.139,0.496
			c-0.093,0.088-0.13,0.269-0.13,0.496c-0.093,0.945-1.037,1.44-2.797,1.44c-0.898,0-1.575-0.046-2.168-0.134
			c-0.314-0.046-0.574-0.315-0.722-0.769l0.055-0.403c0.037-0.408,0.093-0.764,0.093-1.125l0.037-0.676
			c0.093-1.037,0.14-2.028,0.14-3.065l-0.047-2.117l-0.223-3.247c-0.055-0.583-0.231-1.079-0.593-1.574
			c-0.269-0.32-0.352-0.769-0.352-1.311c0-0.403,0.083-0.764,0.26-1.079c0.056,0,0.056,0,0.056-0.046
			c0.397-0.496,0.574-0.945,0.574-1.306v-7.211c0-0.269-0.037-0.496-0.084-0.676c-0.093-0.227-0.093-0.403-0.093-0.542
			c0-0.269,0.047-0.449,0.093-0.537c0.084-0.093,0.139-0.139,0.176-0.139c0.278-0.042,0.501-0.176,0.63-0.403
			c0.371-0.449,1.131-0.723,2.298-0.723c0.463,0.046,0.907,0.093,1.352,0.181c0.501,0,0.778,0.134,0.861,0.361l0.361,1.079
			c0.269,0.634,0.445,1.264,0.584,1.94l0.093,0.269c0.046,0.315,0.139,0.454,0.231,0.454c0.083,0,0.259-0.046,0.398-0.139
			c0.176-0.088,1.12-0.537,2.843-1.353c1.168-0.537,2.391-0.944,3.687-1.213c0.093-0.092,0.278-0.139,0.501-0.139
			c0.129,0,0.222,0.093,0.314,0.227s0.186,0.273,0.223,0.315c0.407,0.227,0.63,0.588,0.63,1.037v0.315
			c0,0.181,0.092,0.315,0.231,0.496c0.139,0.181,0.222,0.408,0.222,0.676c0,0.407-0.046,0.769-0.083,1.171
			c-0.056,0.273-0.093,0.496-0.093,0.769c0,0.088-0.093,0.222-0.314,0.356l-1.084,0.588c-2.621,1.352-4.918,3.107-6.845,5.316
			c0,0.046,0,0.046-0.056,0.046c-0.315,0.315-0.491,0.583-0.491,0.718c0,0.139,0.176,0.273,0.584,0.408l3.927,1.76l3.742,1.709
			c0.63,0.315,0.944,0.857,0.981,1.579c0,0.361-0.037,0.723-0.176,1.079l-0.093,0.32c0,0.042,0,0.134,0.047,0.222
			c0.046,0.092,0.046,0.181,0.046,0.273C170.87,7.147,170.833,7.281,170.833,7.37z M179.892,32.067
			c1.444-2.751,2.741-5.502,4.001-8.248c0.093-0.228,0.324-0.361,0.593-0.449c0.269-0.093,0.537-0.228,0.76-0.454
			c0.093-0.088,0.186-0.134,0.277-0.134l0.186,0.046c0.176,0.047,0.352,0.088,0.537,0.088c0.223,0,0.444-0.041,0.667-0.134
			c0.5-0.134,0.815-0.228,1-0.228c0.223,0,0.445,0.094,0.723,0.228c0.093,0.046,0.176,0.046,0.26,0.046h0.277
			c0.223,0,0.361,0.088,0.445,0.314c0.092,0.449,0.185,0.765,0.277,0.945l0.353,1.172c0.463,2.163,0.777,4.372,0.861,6.627
			l0.231,4.279l0.13,1.353c0.046,0.764,0.092,1.486,0.222,2.256v0.176l-0.037,0.314c-0.185,0.588-0.314,1.177-0.37,1.76
			c-0.037,0.228-0.176,0.408-0.398,0.449l-0.176,0.047c-0.186,0.046-0.371,0.088-0.5,0.227c-0.14,0.088-0.315,0.181-0.501,0.181
			c-0.092,0-0.222-0.046-0.352-0.093c-0.463-0.088-0.907-0.181-1.315-0.269l-0.63-0.046l-0.269-0.047c-0.083,0-0.231,0-0.314,0.047
			c-0.093,0.046-0.177,0.046-0.315,0.046c-0.176,0-0.407-0.093-0.583-0.273c-0.186-0.176-0.315-0.402-0.371-0.718
			c-0.037-0.134-0.083-0.227-0.129-0.314c-0.093-0.093-0.093-0.181-0.093-0.228c0-0.092,0-0.227,0.046-0.269
			c0.093-0.319,0.139-0.676,0.139-1.037c0-0.991-0.092-1.982-0.314-2.974c0-0.092-0.047-0.139-0.139-0.139
			c-0.084,0-0.177,0.047-0.223,0.139c-0.093,0.089-0.176,0.223-0.269,0.357c-0.815,1.218-1.714,2.39-2.668,3.515
			c-1.528,1.94-3.103,2.886-4.77,2.886c-0.408,0-0.77-0.047-1.177-0.135c-2.473-0.63-4.001-2.524-4.594-5.724
			c-0.037-0.27-0.093-0.496-0.093-0.765c0-0.273-0.037-0.495-0.093-0.723c-0.083-0.542-0.13-1.079-0.13-1.667l-0.046-1.26
			c0-0.273,0-0.407,0.046-0.454c0-0.314,0-0.542,0.047-0.764c0-1.307,0.046-3.965,0.176-7.976c0.056-1.353,0.139-2.704,0.314-4.01
			c0.231-1.579,0.454-2.436,0.547-2.524c0.139-0.093,0.314-0.134,0.491-0.181c0.814,0,1.352,0,1.537-0.046
			c0.584,0,1.13,0.093,1.704,0.227c1.093,0.181,1.631,0.63,1.631,1.394l0.037,0.769v6.669l-0.037,2.297l0.037,2.297v2.751
			c0,0.449,0,0.898,0.055,1.353c0.037,0.449,0.037,0.723,0.037,0.764c0,0.047,0.056,0.093,0.14,0.093l0.139-0.046
			C178.039,35.624,178.715,34.318,179.892,32.067z M193.498,9.083l-0.047,0.315c-0.185,0.588-0.314,1.172-0.361,1.76
			c-0.046,0.222-0.176,0.403-0.397,0.449l-0.186,0.046c-0.186,0.042-0.361,0.088-0.5,0.222c-0.13,0.093-0.315,0.181-0.491,0.181
			c-0.093,0-0.231-0.042-0.361-0.088c-0.444-0.093-0.907-0.181-1.306-0.273l-0.63-0.042l-0.269-0.046c-0.093,0-0.223,0-0.315,0.046
			c-0.093,0.042-0.185,0.042-0.314,0.042c-0.186,0-0.408-0.088-0.593-0.269c-0.176-0.181-0.315-0.403-0.353-0.722
			c-0.056-0.134-0.093-0.223-0.147-0.315c-0.084-0.088-0.084-0.181-0.084-0.223c0-0.092,0-0.227,0.047-0.273
			c0.092-0.315,0.129-0.676,0.129-1.038c0-0.991-0.092-1.982-0.314-2.973c0-0.088-0.037-0.134-0.13-0.134s-0.186,0.046-0.223,0.134
			c-0.092,0.093-0.185,0.227-0.277,0.361c-0.815,1.218-1.704,2.39-2.658,3.515c-1.528,1.936-3.104,2.885-4.771,2.885
			c-0.407,0-0.769-0.046-1.176-0.134c-2.474-0.635-4.011-2.524-4.595-5.724c-0.046-0.273-0.093-0.496-0.093-0.769
			c0-0.269-0.046-0.496-0.083-0.718c-0.093-0.542-0.148-1.083-0.148-1.667l-0.037-1.264c0-0.269,0-0.403,0.037-0.449
			c0-0.315,0-0.542,0.056-0.764c0-1.311,0.037-3.969,0.176-7.979c0.047-1.353,0.14-2.705,0.315-4.011
			c0.231-1.575,0.454-2.431,0.546-2.524c0.13-0.088,0.315-0.134,0.491-0.181c0.806,0,1.353,0,1.528-0.042
			c0.593,0,1.13,0.088,1.723,0.222c1.075,0.181,1.612,0.635,1.612,1.398l0.056,0.764v6.669l-0.056,2.302l0.056,2.297v2.751
			c0,0.449,0,0.898,0.036,1.348c0.047,0.454,0.047,0.722,0.047,0.769s0.046,0.088,0.139,0.088l0.13-0.042
			c0.223-0.361,0.907-1.667,2.075-3.923c1.444-2.746,2.751-5.497,4.01-8.248c0.093-0.222,0.315-0.356,0.584-0.449
			c0.277-0.088,0.537-0.227,0.769-0.449c0.084-0.093,0.176-0.134,0.269-0.134l0.186,0.042c0.176,0.046,0.352,0.093,0.537,0.093
			c0.223,0,0.444-0.046,0.676-0.134c0.491-0.139,0.807-0.227,0.991-0.227c0.223,0,0.445,0.088,0.723,0.227
			c0.093,0.042,0.186,0.042,0.269,0.042h0.269c0.223,0,0.361,0.093,0.454,0.315c0.083,0.454,0.176,0.769,0.269,0.95l0.361,1.171
			c0.454,2.163,0.769,4.372,0.861,6.623l0.223,4.284l0.129,1.348c0.047,0.769,0.093,1.491,0.223,2.255v0.315H193.498z"/>
		<path fill="#020203" d="M105.94-3.31l0.093,0.273c0.037,0.088,0.129,0.135,0.222,0.135h0.093l0.223-0.135
			c1.353-0.769,2.297-1.713,2.89-2.885c0.176-0.315,0.223-0.63,0.223-1.038c0-0.903-0.63-1.398-1.853-1.533
			c-0.584,0-1.214,0.046-1.797,0.18c-0.315,0.046-0.537,0.134-0.593,0.181c-0.037,0.093-0.093,0.181-0.093,0.269l0.056,0.588
			C105.662-5.968,105.894-4.663,105.94-3.31z"/>
		<path fill="#020203" d="M106.126,3.405l0.036,0.315c0.093,0.676,0.14,1.398,0.14,2.116l-0.047,1.399
			c0.047,0.227,0.269,0.314,0.723,0.314c0.723-0.088,1.39-0.361,2.028-0.764c0.63-0.449,1.084-1.038,1.307-1.802
			c0.037-0.181,0.092-0.361,0.092-0.542c0-0.449-0.231-0.903-0.629-1.264c-0.686-0.583-1.445-0.852-2.298-0.852
			C106.57,2.326,106.126,2.683,106.126,3.405z"/>
		<path fill="#020203" d="M126.938,25.755c-0.047-0.088-0.084-0.088-0.14-0.088c-0.083,0-0.129,0.088-0.176,0.223
			c-0.176,0.815-0.454,1.579-0.769,2.344c-0.315,0.769-0.444,1.311-0.444,1.672c0,0.088,0.037,0.176,0.093,0.269
			c0.083,0.088,0.129,0.088,0.222,0.134c0.093,0,0.13,0,0.223,0l1.982-0.314c0.129-0.047,0.222-0.093,0.277-0.269l-0.056-0.273
			C127.392,27.066,126.984,25.848,126.938,25.755z"/>
	</g>
	<polygon points="157.31,-3.491 157.31,-3.444 157.272,-3.444 	"/>
	<path d="M155.059-4.121v-0.088c0.047,0,0.084,0,0.139,0.042L155.059-4.121C155.105-4.074,155.059-4.121,155.059-4.121z"/>
	<g>
		<path fill="#020203" d="M49.699,62.439c-0.718-1.714-1.528-4.104-2.974-5.049c-1.713-1.171-3.695-1.171-5.631-0.902
			c-0.811,0.139-1.621,0.227-2.436,0.361c2.075,0.856,4.057,2.074,5.905,3.607c1.487,1.213,2.885,2.565,4.279,3.964
			c1.172,1.167,2.57,2.575,4.057,3.112C51.505,66.403,50.556,64.421,49.699,62.439z"/>
		<path fill="#020203" d="M2.702,53.695c0.269,0.588,0.537,1.172,0.852,1.714c0.949,0.407,1.94,0.764,2.932,1.037
			c8.878,2.385,17.617,1.533,26.542,0.134c0.092,0,0.181-0.046,0.269-0.046c-5.72-0.676-11.712,0.588-17.39,0.588
			C11.26,57.164,6.666,56.266,2.702,53.695z"/>
		<path fill="#020203" d="M73.809,54.149c-1.218,1.213-2.57,2.204-3.964,3.153c0.088,0,0.134,0,0.222-0.046
			c2.797-1.172,5.006-2.932,6.085-6.127c-0.583,1.032-1.26,1.981-2.116,2.792C73.99,53.969,73.902,54.057,73.809,54.149z"/>
		<path fill="#020203" d="M-2.346,52.028c0.991,1.667,3.2,3.334,4.052,3.876c0.542,0.63,1.13,1.218,1.894,1.667
			c3.742,2.256,7.706,3.107,11.81,2.886c1.843-0.093,3.691-0.542,5.539-0.811c1.037-0.139,2.028-0.227,3.065-0.227
			c1.895,0,3.784,0.18,5.725,0.134c3.695-0.088,7.433-0.269,11.128-0.542c0.046,0,0.046,0,0.093,0
			c1.353,0.815,2.658,1.848,3.918,2.932c1.579,2.116,3.154,4.237,4.779,6.35c0.269,0.37,0.811,1.667,2.612,1.037
			c0.227-0.093,0.269-0.444,0.407-0.667c-1.94-0.723-3.654-2.76-5.141-4.195c-0.856-0.861-1.755-1.714-2.658-2.474
			c-0.315-0.458-0.63-0.861-0.945-1.269c-0.811-1.079-1.713-1.714-2.973-1.667c-0.634-0.408-1.311-0.723-1.987-1.038
			c-0.764-0.314-1.528-0.583-2.297-0.811c-7.614,1.265-15.274,2.793-22.934,1.849c-3.02-0.361-6.761-0.765-10.049-2.163
			c-0.093,0-0.139,0-0.227-0.088c-0.588-0.273-1.172-0.542-1.713-0.903c-0.584-0.723-1.038-1.579-1.394-2.523
			c0.583,0.495,1.213,0.944,1.889,1.306c-0.315-0.63-0.583-1.306-0.856-1.982c-0.537-0.407-1.033-0.856-1.575-1.353
			c-0.046-0.181-0.093-0.361-0.093-0.541c-0.042-0.315-0.088-0.63-0.134-0.945c0.408,0.449,0.857,0.903,1.306,1.306
			c-1.125-3.83-1.353-7.975-1.621-12.166c-0.269-4.418-0.991-8.785-1.533-13.157c-0.134-0.991-0.222-2.028-0.361-3.065
			c0-0.361-0.042-0.765-0.042-1.126C-2.976,16.201-3.337,10.75-3.699,5.299c-0.093-0.991-0.181-2.028-0.315-3.02
			c0.042-2.209,0.181-4.372,0.449-6.535c0.088-0.676,0.181-1.353,0.315-2.028C-3.745-5.2-4.148-4.074-4.556-2.902
			c0-0.408,0.046-0.857,0.088-1.265c0.092-0.811,0.273-1.621,0.407-2.385c0.496-1.172,1.084-2.255,1.667-3.293
			c0.764-2.566,1.936-4.909,3.561-6.757c0.857-0.315,1.755-0.542,2.612-0.811c-1.218,0.898-2.343,1.982-3.247,3.422
			c1.083-1.306,2.302-2.478,3.562-3.515c0.134-0.046,0.315-0.088,0.449-0.134c0.454-0.134,0.903-0.227,1.352-0.315
			c-0.537,0.403-1.033,0.811-1.574,1.218c-2.163,1.848-4.057,4.099-5.59,6.669c-1.89,5.719-1.89,12.435-1.621,18.52
			c0.046,0.542,0.046,1.038,0.088,1.575c0.723-4.729,1.848-9.327,3.696-13.519C3.6-9.437,7.657-14.078,12.612-17.009
			c1.399-0.811,2.839-1.533,4.284-2.116c0.944,0,1.889,0,2.88-0.046c-3.696,1.264-7.252,3.02-10.406,5.678
			C4.23-9.076,0.808-2.542-0.86,4.938c-0.722,3.242-1.171,6.535-1.533,9.869c0.496,5.543,1.218,11.041,1.848,16.538
			c0.764,6.804,0.449,14.464,2.705,20.776c3.334,2.519,7.211,3.649,11.083,3.871c7.526,0.408,15.325-1.89,22.851-0.088
			c2.839-0.588,5.812-1.218,8.604-0.764c3.154,0.495,4.553,3.334,5.905,6.576c0.764,1.797,1.621,3.964,3.066,5.001l0.042,0.047
			c0.361-0.63,0.676-1.26,0.903-1.982c0.722-2.121,1.621-4.191,2.431-6.266c0.227-0.63,0.588-0.898,1.13-0.945
			c0.81-0.046,1.621-0.134,2.385-0.181c-1.528,1.76-2.478,4.146-3.422,6.4c-0.588,1.39-1.218,2.835-2.163,3.52
			c-0.408-0.055-0.857-0.231-1.265-0.5c-0.315,0.63-0.718,1.214-1.079,1.76c0.496,0.177,1.038,0.269,1.575,0.223
			c0.315-0.046,0.635-0.13,0.903-0.277c0.134,0,0.269,0.055,0.407,0.055c3.062,0.093,5.271-3.704,7.345-5.946
			c2.07-2.26,4.548-3.793,6.938-5.414c-0.407,0.047-0.857-0.088-1.26-0.134c-0.454-0.047-0.856-0.227-1.311-0.181
			c-0.088,0-0.134,0-0.222,0c0.63-0.315,1.218-0.588,1.848-0.903c-2.302,0.181-4.733-0.222-6.669,1.265
			c1.621-0.135,3.196-0.273,4.821-0.407c-3.742,1.801-7.479,3.695-9.286,8.479c-0.134,0.352,0.273,0.667,0.454,0.314
			c1.801-3.881,4.821-5.729,8.021-7.308c-1.172,0.856-2.343,1.76-3.427,2.797c-1.398,1.353-2.565,3.02-3.918,4.418
			c-0.722,0.76-1.533,1.297-2.39,1.621c0.403-0.639,0.764-1.353,1.079-2.028c1.13-2.52,2.075-5.183,3.83-7.164
			c0.227-0.273,0.5-0.496,0.723-0.677c-0.496,0.042-0.991,0.088-1.487,0.135c0.134-0.135,0.269-0.315,0.408-0.454
			c1.125-1.125,2.297-1.802,3.695-1.936c1.982-0.181,4.326,0.361,6.174-0.765c3.195-1.986,5.001-5.904,5.946-10.05
			c0.046,0.584,0.046,1.219,0.046,1.802c0,1.848-0.181,3.381-0.588,4.687c0.676-1.306,1.172-2.751,1.533-4.279
			c1.218-4.732,1.218-10.188,0.991-14.829c-0.088-1.848-0.222-3.695-0.403-5.543c-0.046-1.44-0.139-2.839-0.181-4.279
			c-0.139-5.363-0.273-10.768-0.588-16.13c-0.223-3.562-0.542-7.169-1.038-10.68c-0.449-5.951-1.667-11.629-4.594-16.584
			c-0.315-0.496-0.991,0-0.676,0.496c0.361,0.63,0.722,1.306,1.037,1.982c-0.496-0.723-1.037-1.399-1.625-1.982
			c-1.848-1.894-4.011-2.932-6.308-3.427c-0.857-0.361-1.755-0.676-2.658-0.899c-0.676-0.588-1.399-1.13-2.117-1.625
			c2.163,0.139,4.326,0.454,6.396,1.13c2.524,0.81,4.914,2.297,6.761,4.64c2.209,2.839,3.02,6.803,3.247,10.633
			c0,0.273,0.356,0.315,0.356,0c0.046-6.127-1.936-11.583-6.308-14.556c-3.784-2.612-8.336-3.107-12.662-3.062
			c-3.923-1.76-7.933-2.343-12.125-2.209c-4.279,0.134-8.29,1.487-12.481,2.343c-6.22,1.306-13.023,2.524-19.243,5.002
			c-2.07,0.449-4.145,1.125-6.173,2.028c-4.233,0.718-8.29,2.251-11.31,6.442C-7.575-9.483-8.927-1.328-9.826,5.346
			c-1.714,13.111-1.13,28.838,5.136,40.147C-4.194,47.93-3.518,50.092-2.346,52.028z M-0.23,51.398
			c0.134,0.723,0.315,1.398,0.542,2.028c-0.449-0.407-0.903-0.811-1.265-1.306c-0.222-0.723-0.403-1.445-0.629-2.163
			C-1.133,50.453-0.679,50.949-0.23,51.398z M-2.976,20.351c0.088,0.856,0.222,1.667,0.315,2.524
			c0.134,2.611,0.222,5.27,0.403,7.882c0.273,3.742,0.542,7.484,0.903,11.18c0.269,2.658,0.542,5.316,0.945,7.976
			c-0.583-0.677-1.171-1.399-1.713-2.117c-0.63-2.39-1.213-4.779-1.709-7.211c0-0.495,0-0.99,0-1.486
			c-0.046-5.951,0.315-11.943,0.857-17.891C-3.022,20.934-3.022,20.619-2.976,20.351z M-4.602-1.865
			c0.134,1.44,0.315,2.839,0.495,4.279c-0.088,4.372,0.181,8.744,0.588,13.116c-0.315,2.88-0.496,5.719-0.769,8.558
			c-0.315,3.877-0.496,7.799-0.584,11.717c-0.542-2.885-0.991-5.812-1.398-8.738c-1.079-7.98-1.306-16.27,0.134-24.203
			c0.361-1.936,0.857-3.83,1.491-5.678C-4.602-2.453-4.602-2.185-4.602-1.865z M32.893,3.002c0,4.098-2.974,7.521-7.03,8.604
			l3.107,30.505c0,0.181,0.046,0.361,0.046,0.496c0,2.978-2.612,5.409-5.812,5.409s-5.813-2.432-5.813-5.409
			c0-0.223,0-0.403,0.042-0.63l3.654-30.284c-4.33-0.898-7.572-4.506-7.572-8.785V-7.904c0-0.991,0.856-1.801,1.936-1.801
			c1.084,0,1.94,0.81,1.94,1.801v9.012c0,0.991,0.857,1.802,1.936,1.802c1.083,0,1.936-0.811,1.936-1.802v-9.012
			c0-0.991,0.856-1.801,1.94-1.801c1.079,0,1.936,0.81,1.936,1.801v9.012c0,0.991,0.857,1.802,1.94,1.802
			c1.079,0,1.936-0.811,1.936-1.802v-9.012c0-0.991,0.857-1.801,1.936-1.801c1.083,0,1.94,0.81,1.94,1.801V3.002z M45.286,47.614
			c-0.227,0.223-0.496,0.315-0.811,0.315h-7.618c-0.315,0-0.584-0.135-0.764-0.315c-0.227-0.227-0.315-0.495-0.315-0.769l0.315-6.85
			h9.146l0.315,6.85C45.601,47.119,45.508,47.434,45.286,47.614z M36.227,37.968l2.075-46.595c0-0.583,0.496-1.037,1.079-1.037h2.57
			c0.583,0,1.079,0.454,1.079,1.037l2.163,46.595H36.227z M56.099,46.938c0,0.583-0.495,1.032-1.079,1.032h-2.57
			c-0.588,0-1.084-0.449-1.084-1.032L49.204,0.339h8.971L56.099,46.938z M58.309-1.685h-9.147l-0.319-6.854
			c0-0.269,0.093-0.583,0.319-0.764c0.223-0.227,0.496-0.315,0.811-0.315h7.614c0.315,0,0.588,0.134,0.769,0.315
			c0.223,0.227,0.315,0.496,0.315,0.764L58.309-1.685z M76.917,20.531c0.139,1.395,0.273,2.793,0.408,4.191
			c0.181,1.982,0.361,3.964,0.449,5.946c0,0.315,0,0.63,0.046,0.903c0.046,1.486,0.092,2.973,0.092,4.46
			c-0.046,2.028-0.227,4.057-0.588,6.08c-0.134,0.723-0.269,1.399-0.449,2.121c-0.093-2.028-0.315-4.057-0.361-6.085
			c-0.093-3.876,0-7.706-0.046-11.583c-0.046-3.783-0.134-7.613-0.222-11.309C76.467,17.016,76.694,18.771,76.917,20.531z
			 M73.721-14.485c-0.496-1.352-1.13-2.565-1.848-3.695C72.73-17.278,73.36-16.018,73.721-14.485z M69.168-21.2
			c1.038,0.81,1.936,1.848,2.705,3.02c-0.273-0.315-0.588-0.584-0.949-0.811c0.181,0.269,0.361,0.542,0.542,0.856
			c1.352,2.344,2.343,4.956,3.066,7.66c-0.227-1.26-0.454-2.478-0.723-3.742c0-0.088-0.046-0.176-0.088-0.315
			c0.811,2.121,1.352,4.465,1.755,6.85c0.134,1.311,0.269,2.57,0.361,3.876c0,0.046-0.046,0.134-0.046,0.181
			c-0.269-2.07-0.63-4.145-1.125-6.173c0.227,1.26,0.407,2.524,0.583,3.784c0.815,5.636,1.13,11.36,0.903,17.307
			c0.046,1.306,0.046,2.612,0.093,3.964c-0.227-1.44-0.408-2.927-0.676-4.372c-1.311-8.063-3.02-16.265-6.132-23.521
			c-1.171-2.793-2.565-5.451-4.191-7.841c0.134,0,0.227,0,0.361,0c0.18,0,0.407,0.046,0.588,0.046c1.44,2.116,2.746,4.46,3.784,6.85
			C72.952-6.779,74.8,0.747,76.106,8.319c0-0.139,0-0.273,0-0.408c0-1.171-0.042-2.343-0.042-3.515
			c-0.181,0.046-0.361-0.088-0.361-0.361C75.476-2.092,74.8-8.581,72.549-14.124c-0.949-2.343-2.121-4.237-3.515-5.812
			c0.676,0.181,1.26,0.449,1.802,0.811C70.34-19.848,69.752-20.571,69.168-21.2z M64.708-23.271
			c1.621,0.811,3.062,1.936,4.326,3.376c-0.093,0-0.139-0.042-0.227-0.088c-0.856-0.227-1.713-0.361-2.57-0.408
			c-0.764-1.079-1.574-2.163-2.431-3.107C64.074-23.405,64.389-23.363,64.708-23.271z M62.722-23.632
			c0.903,0.991,1.713,2.07,2.524,3.2c-3.876-0.139-7.748-0.227-11.625-0.315c-0.903,0-1.848,0.222-2.751,0.269
			c-2.116,0.088-4.191,0.181-6.308,0.227c-3.2,0.134-6.442,0.356-9.642,0.356c-2.57,0-5.136,0-7.707,0.32
			c-1.713,0.222-3.427,0.403-5.094,0.449c-0.764,0-1.575,0.046-2.343,0.046c1.94-0.635,3.876-1.172,5.817-1.58
			c3.154-0.722,6.354-1.125,9.508-1.533c3.515,0.227,7.03,0.454,10.499,0.361C51.232-22.011,57.044-24.262,62.722-23.632z
			 M40.372-22.956c6.4-1.038,12.801-2.617,19.243-1.848l0,0c-1.801,0.088-3.649,0.361-5.363,0.723
			c-4.326,0.852-8.517,1.26-12.889,1.172C41.094-22.909,40.733-22.909,40.372-22.956z M58.85-27.013
			c0.63,0.408,1.26,0.903,1.848,1.399c-2.839-0.542-5.771-0.454-8.609-0.181c-4.46,0.403-8.878,1.44-13.338,2.116
			c-1.084,0.181-2.209,0.315-3.288,0.449c-0.408-0.042-0.815-0.088-1.218-0.088c4.956-0.945,9.916-2.028,14.871-2.792
			C52.27-26.698,55.558-27.059,58.85-27.013z M28.567-26.383c8.966-2.028,17.844-5.543,26.903-2.297
			c0.449,0.181,0.898,0.361,1.306,0.542c-0.361,0-0.722,0.046-1.083,0.046c-5.271,0.269-10.499,1.44-15.723,2.478
			c-3.334,0.676-6.715,1.306-10.05,1.889c-0.542-0.042-1.037-0.088-1.579-0.088c-3.469-0.227-6.938-0.269-10.365,0.134
			C21.537-24.804,25.14-25.572,28.567-26.383z M19.596-22.594c1.353-0.093,2.705-0.139,4.104-0.139
			c-3.515,0.496-7.03,0.903-10.545,1.172c-0.046,0-0.134,0-0.181,0C15.136-22.099,17.392-22.46,19.596-22.594z M9.458-20.163
			c1.76-0.181,3.562-0.269,5.317-0.449c4.191-0.315,8.382-0.903,12.527-1.533c0.81-0.134,1.625-0.269,2.436-0.408
			c0.088,0,0.18,0,0.269,0c-0.223,0.046-0.449,0.093-0.676,0.093c-4.233,0.722-8.471,1.713-12.527,3.381
			c-1.306,0-2.566,0-3.876-0.046c-2.116-0.046-4.191,0.227-6.215,0.991c-0.32,0.134-0.635,0.181-0.95,0.269
			C6.981-18.723,8.199-19.487,9.458-20.163z M4.008-17.371c-0.093,0.046-0.181,0.046-0.315,0.093
			c0.403-0.315,0.81-0.588,1.259-0.857C4.638-17.908,4.323-17.639,4.008-17.371z M-4.917,43.063
			c-3.2-6.716-4.372-14.737-4.687-22.443C-9.872,12.867-9.154,4.984-7.441-2.5c0.811-3.557,1.848-7.165,3.562-10.184
			c1.894-3.334,4.733-5.271,7.794-6.354c-1.125,0.722-2.07,1.579-2.927,2.524c-0.496,0.181-0.95,0.315-1.399,0.542
			c-0.676,0.315-1.306,1.083-1.755,1.848c-1.038,1.713-1.487,3.696-1.76,5.812c-0.088,0.63-0.181,1.265-0.315,1.895
			c-0.315,0.676-0.583,1.352-0.856,2.07c-5.048,13.746-3.02,30.557,0.134,44.612c0,0.542,0,1.037,0.046,1.579
			c0,0.496,0.046,0.991,0.046,1.487C-4.824,43.243-4.871,43.15-4.917,43.063z"/>
	</g>
</g>
<g id="Layer_2">
</g>
</svg>
